<svg width="512" height="512" viewBox="0 0 512 512" fill="none" xmlns="http://www.w3.org/2000/svg">
	<path
		d="M116.875 130.292C128.38 117.613 141.54 106.541 156 97.375C150.257 95.7247 144.369 94.6294 138.417 94.1042C126.5 93.2083 121.271 96.0417 119.042 98.2708C116.833 100.479 114 105.708 114.875 117.646C115.188 121.458 115.833 125.687 116.875 130.292ZM437.812 302.062C439.083 304.625 440.312 307.167 441.5 309.688C451.417 330.938 457.979 351.708 459.396 370.375C460.792 388.958 457.188 408.292 443.146 422.354C429.104 436.396 409.75 440 391.167 438.604C374.917 437.354 357.063 432.229 338.667 424.354L338.604 424.396C335.369 423.013 332.16 421.568 328.979 420.062C286.625 400 238.167 364.771 192.688 319.271C147.25 273.833 112.021 225.417 91.9584 183.104C90.4375 179.875 88.9792 176.646 87.6042 173.458L87.625 173.417C79.7292 154.979 74.5834 137.062 73.3542 120.771C71.9375 102.187 75.5417 82.8542 89.6042 68.7917C103.625 54.75 122.979 51.1458 141.563 52.5417C160.229 53.9583 180.979 60.5208 202.25 70.4583C204.833 71.6458 207.417 72.8958 210.021 74.2083C241.5 66.2365 274.511 66.5806 305.817 75.207C337.123 83.8334 365.651 100.446 388.604 123.417C411.585 146.376 428.204 174.914 436.831 206.233C445.458 237.551 445.796 270.574 437.812 302.062ZM414.625 356.083C405.499 370.506 394.454 383.619 381.792 395.062C386.333 396.104 390.521 396.75 394.292 397.042C406.229 397.938 411.458 395.104 413.667 392.875C415.917 390.667 418.75 385.437 417.833 373.5C417.32 367.606 416.246 361.774 414.625 356.083ZM123.438 388.583C101.053 366.223 84.6948 338.559 75.8898 308.169C67.0848 277.78 66.1193 245.655 73.0834 214.792C95.625 256.062 129.438 300.208 170.583 341.375C211.771 382.562 255.958 416.375 297.25 438.938C266.383 445.905 234.255 444.942 203.861 436.137C173.468 427.331 145.8 410.972 123.438 388.583Z"
		fill="#FF944C" />
</svg>
	